<svg xmlns="http://www.w3.org/2000/svg" viewBox="0 0 348 348" width="348" height="348"><rect width="348" height="348" rx="28" fill="#ffffff"/><g fill="#102a1e"><rect x="132" y="24" width="12" height="12" rx="2"/><rect x="144" y="24" width="12" height="12" rx="2"/><rect x="156" y="24" width="12" height="12" rx="2"/><rect x="180" y="24" width="12" height="12" rx="2"/><rect x="192" y="24" width="12" height="12" rx="2"/><rect x="204" y="24" width="12" height="12" rx="2"/><rect x="180" y="36" width="12" height="12" rx="2"/><rect x="192" y="36" width="12" height="12" rx="2"/><rect x="168" y="48" width="12" height="12" rx="2"/><rect x="192" y="48" width="12" height="12" rx="2"/><rect x="204" y="48" width="12" height="12" rx="2"/><rect x="216" y="48" width="12" height="12" rx="2"/><rect x="144" y="60" width="12" height="12" rx="2"/><rect x="180" y="60" width="12" height="12" rx="2"/><rect x="192" y="60" width="12" height="12" rx="2"/><rect x="204" y="60" width="12" height="12" rx="2"/><rect x="156" y="72" width="12" height="12" rx="2"/><rect x="204" y="72" width="12" height="12" rx="2"/><rect x="216" y="72" width="12" height="12" rx="2"/><rect x="144" y="84" width="12" height="12" rx="2"/><rect x="156" y="84" width="12" height="12" rx="2"/><rect x="216" y="84" width="12" height="12" rx="2"/><rect x="120" y="96" width="12" height="12" rx="2"/><rect x="156" y="96" width="12" height="12" rx="2"/><rect x="132" y="108" width="12" height="12" rx="2"/><rect x="156" y="108" width="12" height="12" rx="2"/><rect x="216" y="108" width="12" height="12" rx="2"/><rect x="24" y="120" width="12" height="12" rx="2"/><rect x="36" y="120" width="12" height="12" rx="2"/><rect x="48" y="120" width="12" height="12" rx="2"/><rect x="60" y="120" width="12" height="12" rx="2"/><rect x="72" y="120" width="12" height="12" rx="2"/><rect x="84" y="120" width="12" height="12" rx="2"/><rect x="108" y="120" width="12" height="12" rx="2"/><rect x="132" y="120" width="12" height="12" rx="2"/><rect x="216" y="120" width="12" height="12" rx="2"/><rect x="228" y="120" width="12" height="12" rx="2"/><rect x="240" y="120" width="12" height="12" rx="2"/><rect x="264" y="120" width="12" height="12" rx="2"/><rect x="288" y="120" width="12" height="12" rx="2"/><rect x="300" y="120" width="12" height="12" rx="2"/><rect x="312" y="120" width="12" height="12" rx="2"/><rect x="24" y="132" width="12" height="12" rx="2"/><rect x="48" y="132" width="12" height="12" rx="2"/><rect x="60" y="132" width="12" height="12" rx="2"/><rect x="84" y="132" width="12" height="12" rx="2"/><rect x="96" y="132" width="12" height="12" rx="2"/><rect x="144" y="132" width="12" height="12" rx="2"/><rect x="192" y="132" width="12" height="12" rx="2"/><rect x="204" y="132" width="12" height="12" rx="2"/><rect x="228" y="132" width="12" height="12" rx="2"/><rect x="300" y="132" width="12" height="12" rx="2"/><rect x="24" y="144" width="12" height="12" rx="2"/><rect x="48" y="144" width="12" height="12" rx="2"/><rect x="72" y="144" width="12" height="12" rx="2"/><rect x="84" y="144" width="12" height="12" rx="2"/><rect x="108" y="144" width="12" height="12" rx="2"/><rect x="120" y="144" width="12" height="12" rx="2"/><rect x="144" y="144" width="12" height="12" rx="2"/><rect x="156" y="144" width="12" height="12" rx="2"/><rect x="180" y="144" width="12" height="12" rx="2"/><rect x="204" y="144" width="12" height="12" rx="2"/><rect x="228" y="144" width="12" height="12" rx="2"/><rect x="252" y="144" width="12" height="12" rx="2"/><rect x="264" y="144" width="12" height="12" rx="2"/><rect x="288" y="144" width="12" height="12" rx="2"/><rect x="300" y="144" width="12" height="12" rx="2"/><rect x="312" y="144" width="12" height="12" rx="2"/><rect x="24" y="156" width="12" height="12" rx="2"/><rect x="120" y="156" width="12" height="12" rx="2"/><rect x="132" y="156" width="12" height="12" rx="2"/><rect x="144" y="156" width="12" height="12" rx="2"/><rect x="156" y="156" width="12" height="12" rx="2"/><rect x="168" y="156" width="12" height="12" rx="2"/><rect x="180" y="156" width="12" height="12" rx="2"/><rect x="216" y="156" width="12" height="12" rx="2"/><rect x="228" y="156" width="12" height="12" rx="2"/><rect x="240" y="156" width="12" height="12" rx="2"/><rect x="252" y="156" width="12" height="12" rx="2"/><rect x="276" y="156" width="12" height="12" rx="2"/><rect x="300" y="156" width="12" height="12" rx="2"/><rect x="312" y="156" width="12" height="12" rx="2"/><rect x="24" y="168" width="12" height="12" rx="2"/><rect x="60" y="168" width="12" height="12" rx="2"/><rect x="72" y="168" width="12" height="12" rx="2"/><rect x="132" y="168" width="12" height="12" rx="2"/><rect x="144" y="168" width="12" height="12" rx="2"/><rect x="168" y="168" width="12" height="12" rx="2"/><rect x="180" y="168" width="12" height="12" rx="2"/><rect x="228" y="168" width="12" height="12" rx="2"/><rect x="240" y="168" width="12" height="12" rx="2"/><rect x="288" y="168" width="12" height="12" rx="2"/><rect x="312" y="168" width="12" height="12" rx="2"/><rect x="24" y="180" width="12" height="12" rx="2"/><rect x="36" y="180" width="12" height="12" rx="2"/><rect x="60" y="180" width="12" height="12" rx="2"/><rect x="132" y="180" width="12" height="12" rx="2"/><rect x="168" y="180" width="12" height="12" rx="2"/><rect x="180" y="180" width="12" height="12" rx="2"/><rect x="204" y="180" width="12" height="12" rx="2"/><rect x="240" y="180" width="12" height="12" rx="2"/><rect x="264" y="180" width="12" height="12" rx="2"/><rect x="288" y="180" width="12" height="12" rx="2"/><rect x="300" y="180" width="12" height="12" rx="2"/><rect x="24" y="192" width="12" height="12" rx="2"/><rect x="60" y="192" width="12" height="12" rx="2"/><rect x="96" y="192" width="12" height="12" rx="2"/><rect x="108" y="192" width="12" height="12" rx="2"/><rect x="144" y="192" width="12" height="12" rx="2"/><rect x="156" y="192" width="12" height="12" rx="2"/><rect x="168" y="192" width="12" height="12" rx="2"/><rect x="192" y="192" width="12" height="12" rx="2"/><rect x="252" y="192" width="12" height="12" rx="2"/><rect x="300" y="192" width="12" height="12" rx="2"/><rect x="312" y="192" width="12" height="12" rx="2"/><rect x="60" y="204" width="12" height="12" rx="2"/><rect x="204" y="204" width="12" height="12" rx="2"/><rect x="240" y="204" width="12" height="12" rx="2"/><rect x="252" y="204" width="12" height="12" rx="2"/><rect x="264" y="204" width="12" height="12" rx="2"/><rect x="300" y="204" width="12" height="12" rx="2"/><rect x="312" y="204" width="12" height="12" rx="2"/><rect x="36" y="216" width="12" height="12" rx="2"/><rect x="84" y="216" width="12" height="12" rx="2"/><rect x="120" y="216" width="12" height="12" rx="2"/><rect x="132" y="216" width="12" height="12" rx="2"/><rect x="216" y="216" width="12" height="12" rx="2"/><rect x="252" y="216" width="12" height="12" rx="2"/><rect x="264" y="216" width="12" height="12" rx="2"/><rect x="288" y="216" width="12" height="12" rx="2"/><rect x="300" y="216" width="12" height="12" rx="2"/><rect x="312" y="216" width="12" height="12" rx="2"/><rect x="156" y="228" width="12" height="12" rx="2"/><rect x="168" y="228" width="12" height="12" rx="2"/><rect x="228" y="228" width="12" height="12" rx="2"/><rect x="264" y="228" width="12" height="12" rx="2"/><rect x="288" y="228" width="12" height="12" rx="2"/><rect x="300" y="228" width="12" height="12" rx="2"/><rect x="144" y="240" width="12" height="12" rx="2"/><rect x="180" y="240" width="12" height="12" rx="2"/><rect x="192" y="240" width="12" height="12" rx="2"/><rect x="204" y="240" width="12" height="12" rx="2"/><rect x="228" y="240" width="12" height="12" rx="2"/><rect x="252" y="240" width="12" height="12" rx="2"/><rect x="120" y="252" width="12" height="12" rx="2"/><rect x="180" y="252" width="12" height="12" rx="2"/><rect x="192" y="252" width="12" height="12" rx="2"/><rect x="204" y="252" width="12" height="12" rx="2"/><rect x="216" y="252" width="12" height="12" rx="2"/><rect x="240" y="252" width="12" height="12" rx="2"/><rect x="288" y="252" width="12" height="12" rx="2"/><rect x="312" y="252" width="12" height="12" rx="2"/><rect x="120" y="264" width="12" height="12" rx="2"/><rect x="132" y="264" width="12" height="12" rx="2"/><rect x="144" y="264" width="12" height="12" rx="2"/><rect x="192" y="264" width="12" height="12" rx="2"/><rect x="204" y="264" width="12" height="12" rx="2"/><rect x="216" y="264" width="12" height="12" rx="2"/><rect x="228" y="264" width="12" height="12" rx="2"/><rect x="240" y="264" width="12" height="12" rx="2"/><rect x="264" y="264" width="12" height="12" rx="2"/><rect x="276" y="264" width="12" height="12" rx="2"/><rect x="288" y="264" width="12" height="12" rx="2"/><rect x="120" y="276" width="12" height="12" rx="2"/><rect x="132" y="276" width="12" height="12" rx="2"/><rect x="156" y="276" width="12" height="12" rx="2"/><rect x="180" y="276" width="12" height="12" rx="2"/><rect x="192" y="276" width="12" height="12" rx="2"/><rect x="204" y="276" width="12" height="12" rx="2"/><rect x="216" y="276" width="12" height="12" rx="2"/><rect x="228" y="276" width="12" height="12" rx="2"/><rect x="264" y="276" width="12" height="12" rx="2"/><rect x="288" y="276" width="12" height="12" rx="2"/><rect x="120" y="288" width="12" height="12" rx="2"/><rect x="144" y="288" width="12" height="12" rx="2"/><rect x="168" y="288" width="12" height="12" rx="2"/><rect x="192" y="288" width="12" height="12" rx="2"/><rect x="204" y="288" width="12" height="12" rx="2"/><rect x="228" y="288" width="12" height="12" rx="2"/><rect x="252" y="288" width="12" height="12" rx="2"/><rect x="264" y="288" width="12" height="12" rx="2"/><rect x="276" y="288" width="12" height="12" rx="2"/><rect x="288" y="288" width="12" height="12" rx="2"/><rect x="300" y="288" width="12" height="12" rx="2"/><rect x="120" y="300" width="12" height="12" rx="2"/><rect x="156" y="300" width="12" height="12" rx="2"/><rect x="168" y="300" width="12" height="12" rx="2"/><rect x="180" y="300" width="12" height="12" rx="2"/><rect x="192" y="300" width="12" height="12" rx="2"/><rect x="240" y="300" width="12" height="12" rx="2"/><rect x="252" y="300" width="12" height="12" rx="2"/><rect x="288" y="300" width="12" height="12" rx="2"/><rect x="312" y="300" width="12" height="12" rx="2"/><rect x="132" y="312" width="12" height="12" rx="2"/><rect x="156" y="312" width="12" height="12" rx="2"/><rect x="168" y="312" width="12" height="12" rx="2"/><rect x="240" y="312" width="12" height="12" rx="2"/><rect x="264" y="312" width="12" height="12" rx="2"/><rect x="276" y="312" width="12" height="12" rx="2"/><rect x="288" y="312" width="12" height="12" rx="2"/><rect x="24" y="24" width="12" height="12" rx="2"/><rect x="36" y="24" width="12" height="12" rx="2"/><rect x="48" y="24" width="12" height="12" rx="2"/><rect x="60" y="24" width="12" height="12" rx="2"/><rect x="72" y="24" width="12" height="12" rx="2"/><rect x="84" y="24" width="12" height="12" rx="2"/><rect x="96" y="24" width="12" height="12" rx="2"/><rect x="24" y="36" width="12" height="12" rx="2"/><rect x="96" y="36" width="12" height="12" rx="2"/><rect x="24" y="48" width="12" height="12" rx="2"/><rect x="48" y="48" width="12" height="12" rx="2"/><rect x="60" y="48" width="12" height="12" rx="2"/><rect x="72" y="48" width="12" height="12" rx="2"/><rect x="96" y="48" width="12" height="12" rx="2"/><rect x="24" y="60" width="12" height="12" rx="2"/><rect x="48" y="60" width="12" height="12" rx="2"/><rect x="60" y="60" width="12" height="12" rx="2"/><rect x="72" y="60" width="12" height="12" rx="2"/><rect x="96" y="60" width="12" height="12" rx="2"/><rect x="24" y="72" width="12" height="12" rx="2"/><rect x="48" y="72" width="12" height="12" rx="2"/><rect x="60" y="72" width="12" height="12" rx="2"/><rect x="72" y="72" width="12" height="12" rx="2"/><rect x="96" y="72" width="12" height="12" rx="2"/><rect x="24" y="84" width="12" height="12" rx="2"/><rect x="96" y="84" width="12" height="12" rx="2"/><rect x="24" y="96" width="12" height="12" rx="2"/><rect x="36" y="96" width="12" height="12" rx="2"/><rect x="48" y="96" width="12" height="12" rx="2"/><rect x="60" y="96" width="12" height="12" rx="2"/><rect x="72" y="96" width="12" height="12" rx="2"/><rect x="84" y="96" width="12" height="12" rx="2"/><rect x="96" y="96" width="12" height="12" rx="2"/><rect x="240" y="24" width="12" height="12" rx="2"/><rect x="252" y="24" width="12" height="12" rx="2"/><rect x="264" y="24" width="12" height="12" rx="2"/><rect x="276" y="24" width="12" height="12" rx="2"/><rect x="288" y="24" width="12" height="12" rx="2"/><rect x="300" y="24" width="12" height="12" rx="2"/><rect x="312" y="24" width="12" height="12" rx="2"/><rect x="240" y="36" width="12" height="12" rx="2"/><rect x="312" y="36" width="12" height="12" rx="2"/><rect x="240" y="48" width="12" height="12" rx="2"/><rect x="264" y="48" width="12" height="12" rx="2"/><rect x="276" y="48" width="12" height="12" rx="2"/><rect x="288" y="48" width="12" height="12" rx="2"/><rect x="312" y="48" width="12" height="12" rx="2"/><rect x="240" y="60" width="12" height="12" rx="2"/><rect x="264" y="60" width="12" height="12" rx="2"/><rect x="276" y="60" width="12" height="12" rx="2"/><rect x="288" y="60" width="12" height="12" rx="2"/><rect x="312" y="60" width="12" height="12" rx="2"/><rect x="240" y="72" width="12" height="12" rx="2"/><rect x="264" y="72" width="12" height="12" rx="2"/><rect x="276" y="72" width="12" height="12" rx="2"/><rect x="288" y="72" width="12" height="12" rx="2"/><rect x="312" y="72" width="12" height="12" rx="2"/><rect x="240" y="84" width="12" height="12" rx="2"/><rect x="312" y="84" width="12" height="12" rx="2"/><rect x="240" y="96" width="12" height="12" rx="2"/><rect x="252" y="96" width="12" height="12" rx="2"/><rect x="264" y="96" width="12" height="12" rx="2"/><rect x="276" y="96" width="12" height="12" rx="2"/><rect x="288" y="96" width="12" height="12" rx="2"/><rect x="300" y="96" width="12" height="12" rx="2"/><rect x="312" y="96" width="12" height="12" rx="2"/><rect x="24" y="240" width="12" height="12" rx="2"/><rect x="36" y="240" width="12" height="12" rx="2"/><rect x="48" y="240" width="12" height="12" rx="2"/><rect x="60" y="240" width="12" height="12" rx="2"/><rect x="72" y="240" width="12" height="12" rx="2"/><rect x="84" y="240" width="12" height="12" rx="2"/><rect x="96" y="240" width="12" height="12" rx="2"/><rect x="24" y="252" width="12" height="12" rx="2"/><rect x="96" y="252" width="12" height="12" rx="2"/><rect x="24" y="264" width="12" height="12" rx="2"/><rect x="48" y="264" width="12" height="12" rx="2"/><rect x="60" y="264" width="12" height="12" rx="2"/><rect x="72" y="264" width="12" height="12" rx="2"/><rect x="96" y="264" width="12" height="12" rx="2"/><rect x="24" y="276" width="12" height="12" rx="2"/><rect x="48" y="276" width="12" height="12" rx="2"/><rect x="60" y="276" width="12" height="12" rx="2"/><rect x="72" y="276" width="12" height="12" rx="2"/><rect x="96" y="276" width="12" height="12" rx="2"/><rect x="24" y="288" width="12" height="12" rx="2"/><rect x="48" y="288" width="12" height="12" rx="2"/><rect x="60" y="288" width="12" height="12" rx="2"/><rect x="72" y="288" width="12" height="12" rx="2"/><rect x="96" y="288" width="12" height="12" rx="2"/><rect x="24" y="300" width="12" height="12" rx="2"/><rect x="96" y="300" width="12" height="12" rx="2"/><rect x="24" y="312" width="12" height="12" rx="2"/><rect x="36" y="312" width="12" height="12" rx="2"/><rect x="48" y="312" width="12" height="12" rx="2"/><rect x="60" y="312" width="12" height="12" rx="2"/><rect x="72" y="312" width="12" height="12" rx="2"/><rect x="84" y="312" width="12" height="12" rx="2"/><rect x="96" y="312" width="12" height="12" rx="2"/></g></svg>